<svg xmlns="http://www.w3.org/2000/svg" fill="none" viewBox="0 0 48 48">
  <path fill="#fff" fill-opacity=".45" d="M16.13 39.115H8.367a1.041 1.041 0 0 1-1.026-1.2l5.234-33.176a1.279 1.279 0 0 1 1.261-1.079h13.335c6.315 0 10.909 4.592 10.8 10.157 3.735 1.95 5.915 5.91 5.234 10.247a12.548 12.548 0 0 1-12.39 10.62H26.89a1.275 1.275 0 0 0-1.261 1.08L23.87 46.9a1.276 1.276 0 0 1-1.262 1.079H15.94a1.04 1.04 0 0 1-1.026-1.199l1.215-7.664v-.002Z"/>
  <path fill="#fff" fill-opacity=".45" d="M37.973 13.817a11.668 11.668 0 0 0-5.441-1.294H21.414a1.277 1.277 0 0 0-1.261 1.08l-2.098 13.293.006-.035a1.28 1.28 0 0 1 1.256-1.042h6.144a12.553 12.553 0 0 0 12.39-10.62c.071-.457.113-.92.122-1.382Z"/>
  <path fill="#fff" d="M16.133 39.115H8.368a1.041 1.041 0 0 1-1.026-1.2l5.234-33.176a1.279 1.279 0 0 1 1.261-1.079h13.335c6.315 0 10.909 4.592 10.801 10.157a11.67 11.67 0 0 0-5.441-1.294H21.414a1.277 1.277 0 0 0-1.261 1.08l-2.098 13.293.006-.035-1.928 12.254Z"/>
</svg>
